#!OML:ASF F:\VICON\USERDATA\INSTALL\rory3\rory3.ASF
:FULLY-SPECIFIED
:DEGREES
719
root -0.411867 18.5016 11.4053 211.095 -42.5551 -184.683
lowerback -0.460172 2.44281 -2.12375
upperback -18.0849 0.505433 -2.60278
thorax -20.7525 -0.705583 -1.63794
lowerneck -3.43762 -10.3207 -7.82392
upperneck 29.9492 -18.8398 6.74068
head 11.7704 -9.7029 1.36462
rclavicle -3.33213e-014 -5.96354e-015
rhumerus -54.314 -38.5771 30.5762
rradius 14.0491
rwrist 73.8551
rhand -17.1512 10.8254
rfingers 7.12502
rthumb 9.08941 -18.9587
lclavicle -3.33213e-014 -5.96354e-015
lhumerus -57.5174 2.88454 -7.87212
lradius 10.0297
lwrist -91.6558
lhand -10.7135 24.8871
lfingers 7.12502
lthumb 15.2964 54.3014
rfemur -49.0062 9.1108 23.3807
rtibia 45.0924
rfoot 17.7198 1.51885
rtoes -22.202
lfemur 142.495 192.28 162.194
ltibia 38.3928
lfoot -22.672 24.3077
ltoes 10.7634
720
root -0.404638 18.5106 11.2722 209.888 -40.9887 -183.965
lowerback 0.575093 2.79666 -2.02456
upperback -17.6259 1.21248 -2.21085
thorax -20.8013 -0.279024 -1.38637
lowerneck -3.23832 -10.3174 -7.97631
upperneck 29.3903 -18.6233 6.63019
head 11.4902 -9.62109 1.41586
rclavicle 6.74004e-014 4.2192e-014
rhumerus -53.8488 -37.3917 31.6435
rradius 14.1091
rwrist 72.427
rhand -16.985 10.6514
rfingers 7.12502
rthumb 9.24985 -19.1257
lclavicle 6.74004e-014 4.2192e-014
lhumerus -56.9338 3.01154 -7.51755
lradius 9.95755
lwrist -96.2901
lhand -10.8986 24.9041
lfingers 7.12502
lthumb 15.1182 54.3319
rfemur -49.3227 9.22052 23.0349
rtibia 45.8323
rfoot 17.4123 0.995901
rtoes -21.9098
lfemur 143.087 191.778 161.641
ltibia 38.3971
lfoot -22.4792 23.2794
ltoes 9.32795
721
root -0.392091 18.5149 11.1246 208.58 -39.4788 -183.123
lowerback 2.90474 2.81337 -0.735736
upperback -17.6612 1.34898 -2.3574
thorax -22.4881 -0.475696 -2.37571
lowerneck -3.61852 -9.79026 -7.34106
upperneck 29.9866 -18.099 6.60937
head 11.6828 -9.33978 1.34223
rclavicle -1.81391e-015 3.6477e-014
rhumerus -52.7849 -35.1713 30.3664
rradius 14.1853
rwrist 70.702
rhand -16.9279 10.073
rfingers 7.12502
rthumb 9.30489 -19.7017
lclavicle -1.81391e-015 3.6477e-014
lhumerus -56.4013 1.91739 -9.15826
lradius 9.86015
lwrist -100.902
lhand -11.5084 24.8177
lfingers 7.12502
lthumb 14.5307 54.2888
rfemur -49.7599 9.5282 22.6658
rtibia 46.3811
rfoot 17.6204 0.109263
rtoes -17.4808
lfemur 143.801 191.418 161.369
ltibia 38.3491
lfoot -21.7834 23.0274
ltoes 4.72534
722
root -0.380283 18.5485 10.9762 207.094 -38.2971 -181.995
lowerback 4.73909 2.99927 0.13016
upperback -17.609 1.94248 -1.99864
thorax -22.9556 -0.245314 -2.55384
lowerneck -3.85113 -9.67925 -7.51082
upperneck 29.8191 -17.8088 6.57482
head 11.647 -9.20402 1.38727
rclavicle 3.6067e-014 -2.22639e-014
rhumerus -52.297 -33.5434 30.9502
rradius 14.1459
rwrist 69.2346
rhand -16.893 9.37279
rfingers 7.12502
rthumb 9.33863 -20.4004
lclavicle 3.6067e-014 -2.22639e-014
lhumerus -55.9199 1.90587 -9.13561
lradius 9.85397
lwrist -105.369
lhand -11.8195 24.5931
lfingers 7.12502
lthumb 14.2309 54.0856
rfemur -50.0551 11.5994 21.8611
rtibia 46.4959
rfoot 17.7509 -2.08923
rtoes -14.9628
lfemur 144.657 191.097 161.574
ltibia 38.1114
lfoot -21.2328 22.5782
ltoes 0.383752
723
root -0.36262 18.5309 10.8456 205.901 -36.9457 -181.247
lowerback 6.46694 3.19679 0.671906
upperback -17.2757 2.50629 -1.71973
thorax -23.7081 -0.0307255 -2.76054
lowerneck -3.89172 -9.56087 -7.7545
upperneck 29.5443 -17.5835 6.77339
head 11.5698 -9.09624 1.53158
rclavicle 3.89929e-014 -1.27471e-014
rhumerus -53.0015 -33.5364 33.6245
rradius 13.9856
rwrist 70.1624
rhand -16.8864 8.88582
rfingers 7.12502
rthumb 9.34497 -20.887
lclavicle 3.89929e-014 -1.27471e-014
lhumerus -55.3236 1.5703 -9.31742
lradius 9.83218
lwrist -109.321
lhand -12.4983 24.4882
lfingers 7.12502
lthumb 13.5768 54.0255
rfemur -50.6129 11.5133 21.7391
rtibia 46.4899
rfoot 17.656 -3.4857
rtoes -10.2607
lfemur 145.78 191.119 161.619
ltibia 37.7914
lfoot -24.6803 18.2251
ltoes 12.7134
724
root -0.34293 18.5007 10.7212 205.034 -35.5485 -180.865
lowerback 8.29144 3.30054 1.07932
upperback -17.0483 2.86603 -1.6194
thorax -24.7079 0.0611761 -3.07255
lowerneck -3.948 -9.33517 -7.85353
upperneck 29.6156 -17.381 7.06591
head 11.6303 -8.99374 1.67153
rclavicle -2.5109e-014 -5.96354e-015
rhumerus -53.6699 -32.9707 35.7108
rradius 14.0552
rwrist 70.3443
rhand -17.0297 8.56692
rfingers 7.12502
rthumb 9.20664 -21.2121
lclavicle -2.5109e-014 -5.96354e-015
lhumerus -54.7417 0.97083 -9.87325
lradius 9.80849
lwrist -112.46
lhand -13.8444 24.7214
lfingers 7.12502
lthumb 12.2792 54.3408
rfemur -51.3626 11.7415 21.0949
rtibia 46.2509
rfoot 17.2132 -5.40732
rtoes -6.87046
lfemur 146.248 189.675 160.626
ltibia 37.2646
lfoot -19.6152 23.9733
ltoes -9.6597
725
root -0.329014 18.4761 10.5859 204.307 -34.325 -180.777
lowerback 9.96607 3.32069 1.25697
upperback -16.835 3.04513 -1.57831
thorax -25.6511 0.100738 -3.27638
lowerneck -3.91686 -9.05108 -7.88059
upperneck 29.8307 -17.1574 7.32855
head 11.7177 -8.89143 1.79588
rclavicle 7.03946e-014 -6.4605e-015
rhumerus -53.8038 -31.1037 36.6628
rradius 14.1559
rwrist 69.1019
rhand -17.2774 8.72448
rfingers 7.12502
rthumb 8.96766 -21.0649
lclavicle 7.03946e-014 -6.4605e-015
lhumerus -54.1839 0.302225 -10.4332
lradius 9.82829
lwrist -114.904
lhand -15.5205 25.3646
lfingers 7.12502
lthumb 10.6627 55.074
rfemur -52.0779 11.9454 20.1224
rtibia 45.9644
rfoot 16.9851 -6.5617
rtoes -6.93678
lfemur 147.483 189.606 160.087
ltibia 36.6141
lfoot -23.2244 22.2379
ltoes -3.88518
726
root -0.31776 18.4449 10.4331 203.577 -33.3503 -180.859
lowerback 11.5191 3.23947 1.2444
upperback -16.6339 3.02669 -1.53085
thorax -26.5586 0.0917034 -3.29788
lowerneck -3.65134 -8.73799 -7.63718
upperneck 29.9952 -16.8736 7.36653
head 11.6821 -8.77455 1.82505
rclavicle 9.7243e-014 7.74266e-014
rhumerus -53.9846 -29.2583 37.736
rradius 14.2343
rwrist 68.152
rhand -17.6131 9.02467
rfingers 7.12502
rthumb 8.64371 -20.7784
lclavicle 9.7243e-014 7.74266e-014
lhumerus -53.7165 -0.556922 -11.0379
lradius 9.95415
lwrist -117.151
lhand -20.488 27.1911
lfingers 7.12502
lthumb 5.86864 57.0898
rfemur -52.617 12.1135 19.004
rtibia 45.59
rfoot 16.4359 -8.53693
rtoes -5.98651
lfemur 148.984 189.309 159.385
ltibia 35.7348
lfoot -24.5527 20.4754
ltoes 0.13701
727
root -0.320264 18.4001 10.2934 202.804 -32.5834 -180.756
lowerback 13.0107 3.06609 1.71156
upperback -16.3862 3.03078 -1.41866
thorax -27.3169 0.0140783 -3.52191
lowerneck -3.65176 -8.4598 -7.40236
upperneck 30.0932 -16.5241 7.28744
head 11.6555 -8.61437 1.80753
rclavicle 6.78353e-014 -7.95139e-016
rhumerus -53.4584 -26.5165 37.2415
rradius 14.4584
rwrist 65.174
rhand -17.6202 8.4547
rfingers 7.12502
rthumb 8.6369 -21.3486
lclavicle 6.78353e-014 -7.95139e-016
lhumerus -53.4918 -1.2523 -11.5722
lradius 10.1636
lwrist -118.931
lhand -16.6838 22.8571
lfingers 7.12502
lthumb 9.54048 52.6211
rfemur -53.248 11.7273 18.2507
rtibia 45.1747
rfoot 15.6094 -11.1502
rtoes -2.72923
lfemur 150.466 188.991 158.795
ltibia 34.6686
lfoot -27.4525 22.2089
ltoes -9.19201
728
root -0.331594 18.3497 10.1541 202.167 -32.1077 -180.876
lowerback 14.3437 2.66175 2.21665
upperback -15.9307 2.79808 -1.15411
thorax -27.6444 -0.10215 -3.48059
lowerneck -4.46997 -8.24296 -7.42481
upperneck 30.1769 -15.9876 6.98472
head 11.77 -8.34722 1.72795
rclavicle -6.15487e-014 -5.62561e-014
rhumerus -53.1215 -25.0345 37.5258
rradius 14.6607
rwrist 63.0656
rhand -17.2909 7.72732
rfingers 7.12502
rthumb 8.95463 -22.0626
lclavicle -6.15487e-014 -5.62561e-014
lhumerus -53.8202 -2.43126 -11.2173
lradius 10.1944
lwrist -119.36
lhand -17.28 22.8192
lfingers 7.12502
lthumb 8.96516 52.6087
rfemur -53.918 10.9581 17.3715
rtibia 44.8012
rfoot 13.6528 -15.0165
rtoes 6.40104
lfemur 152.1 188.894 158.097
ltibia 33.4037
lfoot -26.8121 19.4866
ltoes 4.31053
729
root -0.34709 18.2956 10.0123 201.876 -31.7065 -181.365
lowerback 15.3922 2.1831 2.40952
upperback -15.4875 2.34511 -0.932908
thorax -27.7992 -0.24295 -3.20154
lowerneck -5.41489 -7.99062 -7.57054
upperneck 30.3245 -15.4229 6.80349
head 11.9592 -8.06549 1.70862
rclavicle -4.10987e-014 -1.19271e-014
rhumerus -53.7022 -25.3909 40.138
rradius 14.4382
rwrist 64.8788
rhand -18.0481 8.73914
rfingers 7.12502
rthumb 8.22395 -21.0808
lclavicle -4.10987e-014 -1.19271e-014
lhumerus -54.4439 -4.71204 -9.58562
lradius 10.2001
lwrist -118.281
lhand -17.4534 23.0481
lfingers 7.12502
lthumb 8.79783 52.8447
rfemur -54.7831 10.0163 16.1273
rtibia 44.5243
rfoot 12.5772 -17.7297
rtoes 10.5369
lfemur 153.74 189.108 157.156
ltibia 31.9046
lfoot -28.6411 21.7655
ltoes -4.2252
730
root -0.358415 18.2212 9.86086 201.719 -31.1449 -181.841
lowerback 16.1634 1.97313 2.31467
upperback -15.3711 2.07371 -0.888491
thorax -28.2495 -0.326589 -3.01841
lowerneck -4.78691 -7.64629 -7.44071
upperneck 30.0841 -14.9815 6.80133
head 11.6818 -7.8999 1.79174
rclavicle 1.2921e-014 -7.95139e-015
rhumerus -53.2669 -22.9251 40.25
rradius 14.4753
rwrist 63.7577
rhand -17.9331 8.22117
rfingers 7.12502
rthumb 8.33489 -21.5944
lclavicle 1.2921e-014 -7.95139e-015
lhumerus -54.5077 -7.20283 -8.67287
lradius 10.3301
lwrist -118.17
lhand -17.612 23.1948
lfingers 7.12502
lthumb 8.64481 52.9978
rfemur -55.9004 9.54775 14.6028
rtibia 44.2
rfoot 11.2426 -20.7959
rtoes 14.1747
lfemur 155.137 188.812 156.068
ltibia 30.2858
lfoot -25.039 23.6184
ltoes -5.72629
731
root -0.37123 18.1186 9.69357 201.616 -30.6382 -182.252
lowerback 16.7127 1.60053 2.27865
upperback -15.1832 1.60095 -0.773534
thorax -28.4213 -0.469778 -2.6862
lowerneck -4.75413 -7.27026 -7.03468
upperneck 29.8426 -14.3262 6.49971
head 11.4574 -7.59402 1.7178
rclavicle 1.69464e-014 -2.74323e-014
rhumerus -52.9482 -21.5863 40.8247
rradius 14.611
rwrist 63.7221
rhand -16.8819 6.86315
rfingers 7.12502
rthumb 9.34929 -22.9095
lclavicle 1.69464e-014 -2.74323e-014
lhumerus -55.5791 -12.3034 -4.67298
lradius 10.2851
lwrist -113.761
lhand -17.0731 23.554
lfingers 7.12502
lthumb 9.16481 53.3348
rfemur -57.2798 9.66581 12.6767
rtibia 44.0191
rfoot 8.37402 -24.8331
rtoes 19.8435
lfemur 156.387 187.2 154.759
ltibia 28.3867
lfoot -15.6451 29.0953
ltoes -25.787
732
root -0.388903 18.0484 9.51534 201.519 -30.2593 -182.794
lowerback 17.0538 1.15522 2.08507
upperback -14.8225 1.01364 -0.604504
thorax -28.1545 -0.584986 -2.14096
lowerneck -5.44507 -7.01786 -6.69295
upperneck 29.7928 -13.7207 6.01054
head 11.4538 -7.2881 1.53666
rclavicle 5.10877e-014 4.33351e-014
rhumerus -54.2647 -23.6421 45.584
rradius 14.4005
rwrist 69.4788
rhand -17.2491 7.55211
rfingers 7.12502
rthumb 8.99499 -22.2361
lclavicle 5.10877e-014 4.33351e-014
lhumerus -57.0538 -16.2582 -1.39632
lradius 10.1829
lwrist -110.529
lhand -14.429 21.3618
lfingers 7.12502
lthumb 11.7154 51.0143
rfemur -58.2989 9.53497 10.7312
rtibia 43.6481
rfoot 5.6859 -28.106
rtoes 23.6272
lfemur 159.222 189.402 154.684
ltibia 26.513
lfoot -29.8142 20.4819
ltoes 13.8512
733
root -0.403356 17.9097 9.31727 201.384 -29.9577 -183.225
lowerback 17.0924 0.794568 1.75212
upperback -14.4406 0.532952 -0.293657
thorax -27.6085 -0.605511 -1.38085
lowerneck -6.14291 -6.84768 -6.68474
upperneck 29.7937 -13.1908 5.50999
head 11.5084 -7.0517 1.39439
rclavicle -2.29099e-014 -4.81059e-014
rhumerus -54.5394 -23.5094 47.9506
rradius 14.3928
rwrist 71.2008
rhand -17.3814 7.63401
rfingers 7.12502
rthumb 8.86734 -22.1597
lclavicle -2.29099e-014 -4.81059e-014
lhumerus -58.3164 -19.0365 0.785476
lradius 10.1432
lwrist -109.229
lhand -13.3532 22.091
lfingers 7.12502
lthumb 12.7527 51.6816
rfemur -59.5235 9.42633 8.82434
rtibia 43.4115
rfoot 4.47426 -30.2761
rtoes 25.4315
lfemur 160.721 186.57 153.241
ltibia 24.6237
lfoot -20.5911 27.9352
ltoes -10.4622
